<svg xmlns="http://www.w3.org/2000/svg" id="Layer_1" data-name="Layer 1" viewBox="304.56 206.47 151 145.02">
  <defs>
    <style>
      .cls-1 {
        fill: #814682;
      }

      .cls-1, .cls-2 {
        stroke-width: 0px;
      }

      .cls-2 {
        fill: #d171d4;
      }

      .cls-3 {
        fill: none;
        stroke: #814682;
        stroke-linecap: round;
        stroke-miterlimit: 10;
        stroke-width: 3px;
      }
    </style>
  </defs>
  <g id="Objects">
    <g>
      <path class="cls-1" d="m371.7,343.38c0,4.48-6.52,8.11-14.55,8.11s-14.55-3.63-14.55-8.11,6.52-8.11,14.55-8.11c8.04,0,14.55,3.63,14.55,8.11Z"/>
      <path class="cls-1" d="m421.03,341.99c0,4.48-6.52,8.11-14.55,8.11s-14.55-3.63-14.55-8.11,6.52-8.11,14.55-8.11c8.04,0,14.55,3.63,14.55,8.11Z"/>
      <g>
        <path class="cls-2" d="m426.39,298.81c8.19,33.94,9.56,46.71-48.71,44.26-50.98,7.38-53.53-10.32-45.34-44.26-36.86,34.33-24.38-2.99-3.43-19.39-21.58-31.74,7.95-62.21,50.46-46.66,0,7.46,0-16.27,0,0,42.51-15.55,72.04,14.92,50.46,46.66,26.32,16.39,30.65,51.97-3.43,19.39Z"/>
        <path class="cls-3" d="m370.55,275.84c0,7.13-3.91,12.91-8.72,12.91s-8.73-5.78-8.73-12.91"/>
        <path class="cls-3" d="m406.48,275.84c0,7.13-3.9,12.91-8.72,12.91s-8.73-5.78-8.73-12.91"/>
        <path class="cls-1" d="m364.98,232.39s-30.26,8.99-20.41,17.08c5.65,4.64,22.07-6.5,22.07-6.5,0,0,3.83,21.67,10.17,19.17,6.33-2.5,7.83-20.17,7.83-20.17,0,0,8.33,10,11.17,7.33,2.83-2.67-4.15-14.89-4.15-14.89,0,0,21.47,2.23,19.97-4.77s-20.23-2.79-20.23-2.79c0,0,7.5-10.72,0-12.97-3.29-.99-10.78,11.08-10.78,11.08,0,0-.26-19.29-7.76-18.46-7.5.83-1.54,17.66-1.54,17.66,0,0-12.5-9.2-16.83-5.37-4.62,4.09,8.34,12.62,10.51,13.59Z"/>
        <path class="cls-1" d="m385.98,298.72c0,3.59-2.4,6.5-5.36,6.5s-5.36-2.91-5.36-6.5,2.4-6.5,5.36-6.5,5.36,2.91,5.36,6.5Z"/>
        <path class="cls-2" d="m448.94,313.06c0,2.02-1.2,3.67-2.69,3.67s-2.69-1.64-2.69-3.67,1.2-3.67,2.69-3.67,2.69,1.64,2.69,3.67Z"/>
        <path class="cls-2" d="m454.8,312.32c-.84,1.59-3.33,1.92-5.55.74-2.23-1.18-3.35-3.42-2.51-5.01.84-1.59,3.33-1.92,5.55-.74,2.23,1.18,3.35,3.42,2.51,5.01Z"/>
        <ellipse class="cls-2" cx="452.25" cy="305.26" rx="3.31" ry="2.62"/>
        <ellipse class="cls-2" cx="308.56" cy="306.83" rx="4" ry="3"/>
        <ellipse class="cls-2" cx="308.56" cy="311.51" rx="2.75" ry="2.38"/>
        <path class="cls-2" d="m316.4,311.85c0,2.23-1.46,4.04-3.26,4.04s-3.26-1.81-3.26-4.04,1.46-4.04,3.26-4.04,3.26,1.81,3.26,4.04Z"/>
      </g>
    </g>
  </g>
</svg>