<svg xmlns="http://www.w3.org/2000/svg" id="Layer_1" data-name="Layer 1" viewBox="0 208.08 139.46 138.34">
  <defs>
    <style>
      .cls-1 {
        fill: #42d990;
      }

      .cls-1, .cls-2, .cls-3, .cls-4, .cls-5 {
        stroke-width: 0px;
      }

      .cls-2 {
        fill: #814682;
      }

      .cls-3 {
        fill: #3bc281;
      }

      .cls-4 {
        fill: #fff;
      }

      .cls-5 {
        fill: #ffd37b;
      }
    </style>
  </defs>
  <g id="Objects">
    <g>
      <path class="cls-1" d="m110.8,307.98c23.75,24.72-5,51.31-15.34,30.98-4.09-7.07-8.11-11.96-12.15-14.94-7.81-5.8-15.69-4.48-24.19,1.89-4.67,3.49-9.52,8.51-14.66,14.71-17.33,16.34-40.61-4.14-19-32.64-26.36,14-37.66-1.11-7.23-19-30.43,1.89,24.22-99.11,48.82-76.03,27.41-27.45,85.37,69.84,53.42,76.03,36.52,21.71,13.08,33-9.67,19Z"/>
      <path class="cls-3" d="m70.8,271.57s-2,.92-3.67-1.92c-1.67-2.83-3-6.92,1.08-6.92s8.42-.42,8.67,1.67-.92,6.83-6.08,7.17Z"/>
      <g>
        <path class="cls-4" d="m60.82,258.41c.81,7.16-3.26,13.49-9.09,14.15-5.82.65-11.2-4.62-12-11.78-.81-7.16,3.26-13.49,9.09-14.15,5.82-.66,11.2,4.62,12,11.77Z"/>
        <path class="cls-2" d="m55,263.88c0,1.06-.79,1.93-1.76,1.93s-1.76-.86-1.76-1.93.79-1.93,1.76-1.93c.97,0,1.76.86,1.76,1.93Z"/>
      </g>
      <g>
        <path class="cls-4" d="m81.04,258.41c-.81,7.16,3.26,13.49,9.09,14.15,5.82.65,11.2-4.62,12-11.78.81-7.16-3.26-13.49-9.08-14.15-5.82-.66-11.2,4.62-12,11.77Z"/>
        <path class="cls-2" d="m86.85,263.88c0,1.06.79,1.93,1.76,1.93s1.76-.86,1.76-1.93-.79-1.93-1.76-1.93c-.97,0-1.76.86-1.76,1.93Z"/>
      </g>
      <path class="cls-5" d="m92,306.82c0,7.01-1.64,16.29-8.69,17.2-7.81-5.8-15.69-4.48-24.19,1.89-6.95-3.67-11.67-10.84-11.67-19.09,0-11.98,9.97-16.21,22.28-16.21,12.3,0,22.28,4.23,22.28,16.21Z"/>
      <path class="cls-4" d="m62.74,277.53s1.02,7.21,4.94,8.63c3.91,1.42.92-10.08.92-10.08,0,0-3.59-.1-5.86,1.46Z"/>
      <path class="cls-4" d="m79.7,277.53s-1.02,7.21-4.94,8.63c-3.91,1.42-.92-10.08-.92-10.08,0,0,3.59-.1,5.86,1.46Z"/>
    </g>
  </g>
</svg>