<svg xmlns="http://www.w3.org/2000/svg" id="Layer_1" data-name="Layer 1" viewBox="157.61 205.38 134.69 148.96">
  <defs>
    <style>
      .cls-1 {
        fill: #814682;
      }

      .cls-1, .cls-2, .cls-3, .cls-4 {
        stroke-width: 0px;
      }

      .cls-2 {
        fill: #fff;
      }

      .cls-3 {
        fill: #ff7410;
      }

      .cls-4 {
        fill: #ffa710;
      }

      .cls-5 {
        fill: none;
        stroke: #814682;
        stroke-linecap: round;
        stroke-miterlimit: 10;
        stroke-width: 3px;
      }
    </style>
  </defs>
  <g id="Objects">
    <g>
      <path class="cls-3" d="m171.41,275.6s-17.24,11.92-13.18,55.15c0,0,.55,6.15,13.15,4.11,9.22-1.49,6.24-16.7,8.68-31.91s8.74-25.02,3.18-27.35c-7.64-3.2-11.83,0-11.83,0Z"/>
      <path class="cls-3" d="m278.5,275.6s17.23,11.92,13.18,55.15c0,0-.55,6.15-13.15,4.11-9.22-1.49-6.24-16.7-8.68-31.91-2.44-15.21-8.74-25.02-3.17-27.35,7.63-3.2,11.83,0,11.83,0Z"/>
      <g>
        <path class="cls-1" d="m199.36,225.15s-13.09-4.46-19.42-16.63c-6.33-12.17-23.97,13.18,4.82,39.13,28.79,25.95,14.6-22.51,14.6-22.51Z"/>
        <path class="cls-1" d="m250.72,225.15s13.09-4.46,19.42-16.63c6.33-12.17,23.97,13.18-4.82,39.13-28.79,25.95-14.6-22.51-14.6-22.51Z"/>
      </g>
      <path class="cls-3" d="m233.71,337.84c-1.42,7.23,1.39,15.26,8.39,16.18h0c10.21,1.11,15.87-.26,18.02-10.79,2.68-13.13,2.68-26.68,0-39.81-2.15-10.52-11.28-16.13-18.02-13.03h0c-6.79,3.09-9.8,11.19-8.39,18.42,1.95,9.58,1.95,19.46,0,29.04Z"/>
      <path class="cls-3" d="m212.42,336.52c1.42,7.24-1.39,15.26-8.39,16.18h0c-10.21,1.11-15.87-.26-18.01-10.79-2.68-13.13-2.68-26.68,0-39.81,2.15-10.52,11.28-16.13,18.01-13.03h0c6.79,3.09,9.81,11.19,8.39,18.42-1.95,9.58-1.95,19.46,0,29.03Z"/>
      <path class="cls-4" d="m258.94,314.4c1.95,25.88-14.69,32.42-33.84,11.88-20.29,20.53-37.6,13.36-35.03-12.92-25.14,5.91-31.17-24.72-11.5-30.39-17.74-5.47-16.36-14.03,2.86-18.22-12.69-35.46,12.13-61.02,43.68-40.18q-.09-20.83.01,0c31.32-20.83,56.13,4.73,43.66,40.18,19.02,4.19,20.39,12.75,2.87,18.22,22.14,19.4,14.96,35.74-12.7,31.44Z"/>
      <path class="cls-2" d="m235.43,245.87c-.81,7.16,3.26,13.49,9.08,14.15,5.82.65,11.2-4.62,12-11.78.81-7.16-3.26-13.49-9.08-14.15-5.83-.66-11.2,4.62-12,11.77Z"/>
      <path class="cls-1" d="m245.49,254.35c0,.9-.68,1.62-1.52,1.62s-1.52-.73-1.52-1.62.68-1.62,1.52-1.62,1.52.73,1.52,1.62Z"/>
      <g>
        <path class="cls-2" d="m215.41,245.87c.81,7.16-3.26,13.49-9.09,14.15-5.82.65-11.2-4.62-12-11.78-.81-7.16,3.26-13.49,9.09-14.15s11.2,4.62,12,11.77Z"/>
        <path class="cls-1" d="m209.6,251.34c0,1.07-.79,1.93-1.76,1.93s-1.76-.86-1.76-1.93.79-1.93,1.76-1.93,1.76.86,1.76,1.93Z"/>
      </g>
      <path class="cls-5" d="m205.88,263.36s21.76,11.81,39.39-.08"/>
      <path class="cls-3" d="m229.41,248.17c-1.35-5.08-5.49-4.11-6.74-.95-1.24,3.17-8.47,21.98,0,24.66,7.27,2.3,12.49-2.13,6.74-23.71Z"/>
    </g>
  </g>
</svg>