<svg xmlns="http://www.w3.org/2000/svg" id="Layer_1" data-name="Layer 1" viewBox="161.4 0 131.62 146.2">
  <defs>
    <style>
      .cls-1 {
        fill: #814682;
      }

      .cls-1, .cls-2, .cls-3 {
        stroke-width: 0px;
      }

      .cls-2 {
        fill: #fff;
      }

      .cls-4 {
        fill: none;
        stroke: #814682;
        stroke-linecap: round;
        stroke-miterlimit: 10;
        stroke-width: 3px;
      }

      .cls-3 {
        fill: #ee67f5;
      }
    </style>
  </defs>
  <g id="Objects">
    <g>
      <path class="cls-1" d="m206.95,46.73s-22.25-21.25-25.25-36.75-19.5-10.5-20.25-1.5,8,4,16.25,13.5,26.5,30.12,26.5,30.12l2.75-5.37Z"/>
      <path class="cls-1" d="m247.48,47.92s22.25-21.25,25.25-36.75,19.5-10.5,20.25-1.5-8,4-16.25,13.5-26.5,30.12-26.5,30.12l-2.75-5.37Z"/>
      <g>
        <path class="cls-3" d="m269.44,84.46c17.82,11.06,15.16,17.51-2.58,14.4,15.69,16.99,13.94,23.72-3.85,14.1,12.85,20.75,9.84,25.32-6.51,9.56,6.07,25.6-2.72,29.25-19.15,6.96,4.67,22.29-14.51,22.29-13.6,0-.9,22.29-18.03,22.29-12.15,0-13.74,22.29-20.29,20.66-14.07-3.22-19.85,16.56-25.47,9.19-12.43-14.87-18.98,9.29-20.52,3.03-3.36-13.14-19.03,3.11-19.43-3.64-.93-14.22-18.5,3.67-18.5-11.01,0-10.41-18.5-.6-18.5-13.88,0-9.42-18.5-14.15-16.25-23.33,4.44-19.17-14.04-17.68-10.64-22.61,7.14-10.39-7.68-23.12-.19-28.35,15.59-10.79-.25-23.87,15.69-25.46,16.35-3.18,7.81-22.28,15.88-20.57,16.94,3.42,11.77-18.56,16.86-15.45,10.73,6.51,14.73-14.87,18.36-11.01,7.64,8.15,17.4-9.9,20.81-5.48,6.77,10.07,19.17-5.82,20.85-.48,3.03,12.1,17.82-5.8,20.16,11.69,1.66,12.41,18.5-.72,16.16,14.96-1.66,11.12Z"/>
        <path class="cls-1" d="m207.18,93.56s34.83-5.08,36.42,1.92c1.58,7-11.83,11.33-24,10.92-12.17-.42-21.17-11.42-12.42-12.83Z"/>
        <path class="cls-4" d="m219.79,78.52c0,4.35-2.38,7.87-5.32,7.87s-5.32-3.52-5.32-7.87"/>
        <path class="cls-4" d="m241.7,78.52c0,4.35-2.38,7.87-5.32,7.87s-5.32-3.52-5.32-7.87"/>
        <path class="cls-2" d="m211.07,95.73c-.87,1.12.54,6.92,3.04,5.67s2.96-4.81,1.93-5.77c-.9-.85-4.21-.88-4.97.1Z"/>
        <path class="cls-2" d="m237.79,94.98c.86,1.12-.54,6.92-3.04,5.67s-2.95-4.81-1.93-5.77c.91-.85,4.21-.88,4.97.1Z"/>
      </g>
    </g>
  </g>
</svg>