<svg xmlns="http://www.w3.org/2000/svg" id="Layer_1" data-name="Layer 1" viewBox="23.15 3.65 115.92 139.67">
  <defs>
    <style>
      .cls-1 {
        fill: #ff536d;
      }

      .cls-1, .cls-2, .cls-3, .cls-4, .cls-5, .cls-6 {
        stroke-width: 0px;
      }

      .cls-2 {
        fill: #201600;
      }

      .cls-3 {
        fill: #b53b4d;
      }

      .cls-4 {
        fill: #fff;
      }

      .cls-5 {
        fill: #beff57;
      }

      .cls-6 {
        fill: #fffccc;
      }
    </style>
  </defs>
  <g id="Objects">
    <g>
      <path class="cls-3" d="m42.12,97.71c-2.97,10.42-9.29,17.75-14.1,16.38-4.82-1.38-6.31-10.93-3.34-21.35,2.97-10.42,9.29-17.75,14.1-16.38,4.82,1.38,6.31,10.93,3.34,21.35Z"/>
      <path class="cls-3" d="m120.1,97.71c2.97,10.42,9.29,17.75,14.1,16.38,4.82-1.38,6.31-10.93,3.34-21.35-2.97-10.42-9.29-17.75-14.1-16.38-4.81,1.38-6.31,10.93-3.34,21.35Z"/>
      <path class="cls-3" d="m61.19,131.51c.22,3.18,4.72,8.95,2.07,10.53-6.58,3.92-20.06-1.72-20.62-9.11-.71-9.23.46-18.51,3.43-27.28,2.38-7.03,9.12-10.09,13.47-7.38h0c4.39,2.7,5.75,8.51,4.16,13.35-2.16,6.39-3.02,13.16-2.5,19.9Z"/>
      <path class="cls-3" d="m101.64,131.51c-.22,3.18-4.72,8.95-2.07,10.53,6.58,3.92,20.06-1.72,20.62-9.11.71-9.23-.46-18.51-3.43-27.28-2.38-7.03-9.12-10.09-13.47-7.38h0c-4.39,2.7-5.75,8.51-4.16,13.35,2.17,6.39,3.01,13.16,2.5,19.9Z"/>
      <path class="cls-1" d="m122.37,76.63c9.27,40.27-13.79,68.14-41.28,46.43,0-1.28,0,0,0,0-27.49,21.7-50.55-6.16-41.28-46.43-18.41-7.56-19.71-17.57-2.42-21.15-19.47-24.38-9.24-35.95,14.64-24.11-5.74-18.34.86-22.98,13.94-7.87.68-23.36,15.13-27.19,15.13-5.64,14.57-21.08,28.64-7.16,29.07,13.51,23.87-11.83,34.1-.26,14.64,24.11,17.28,3.58,15.98,13.59-2.43,21.15Z"/>
      <g>
        <g>
          <path class="cls-6" d="m110.93,50.28c0,5.06-3.41,9.17-7.62,9.17s-7.62-4.11-7.62-9.17,3.41-9.17,7.62-9.17c4.21,0,7.62,4.1,7.62,9.17Z"/>
          <path class="cls-5" d="m106.56,51.83c0,1.8-1.46,3.25-3.25,3.25s-3.25-1.46-3.25-3.25,1.46-3.25,3.25-3.25,3.25,1.46,3.25,3.25Z"/>
          <path class="cls-2" d="m104.78,51.83c0,.81-.66,1.47-1.47,1.47s-1.47-.66-1.47-1.47.66-1.47,1.47-1.47,1.47.66,1.47,1.47Z"/>
        </g>
        <g>
          <path class="cls-6" d="m66.09,50.28c0,5.06-3.41,9.17-7.62,9.17s-7.62-4.11-7.62-9.17,3.41-9.17,7.62-9.17c4.21,0,7.62,4.1,7.62,9.17Z"/>
          <path class="cls-5" d="m61.72,51.83c0,1.8-1.45,3.25-3.25,3.25s-3.25-1.46-3.25-3.25,1.46-3.25,3.25-3.25,3.25,1.46,3.25,3.25Z"/>
          <path class="cls-2" d="m59.94,51.83c0,.81-.66,1.47-1.47,1.47s-1.47-.66-1.47-1.47.66-1.47,1.47-1.47,1.47.66,1.47,1.47Z"/>
        </g>
      </g>
      <path class="cls-3" d="m95.23,66.72c-.14,1.24-.44,2.52-.78,3.81-1.76,4.82-7.05,8.37-13.36,8.35h-.04c-6.3,0-11.56-3.54-13.32-8.35-.34-1.29-.64-2.56-.78-3.81-.3-2,1.38-3.37,3.59-4.06.36-.11.75-.2,1.15-.28.98-.2,2-.3,3.07-.34,1.33-.04,2.73,0,4.16.03.71.01,1.44.02,2.17.01.26,0,.51,0,.76,0,.41,0,.82,0,1.22,0,1.39-.03,2.74-.07,4.05-.04,1.17.03,2.3.11,3.36.34.28.05.57.12.84.19,2.37.66,4.21,2.05,3.89,4.14Z"/>
      <g>
        <path class="cls-4" d="m74.81,62.77c0,1.83-.95,3.32-2.13,3.32s-2.14-1.49-2.14-3.32v-.11c.36-.11.75-.2,1.15-.28.98-.2,2-.3,3.07-.34.04.23.05.48.05.73Z"/>
        <path class="cls-4" d="m83.14,62.77c0,1.83-.96,3.32-2.14,3.32s-2.13-1.49-2.13-3.32c0-.24.02-.48.05-.7.71.01,1.44.02,2.17.01.26,0,.51,0,.76,0,.41,0,.82,0,1.22,0,.03.22.05.45.05.69Z"/>
        <path class="cls-4" d="m91.34,62.77c0,1.83-.96,3.32-2.14,3.32s-2.13-1.49-2.13-3.32c0-.25.02-.5.05-.73,1.17.03,2.3.11,3.36.34.28.05.57.12.84.19,0,.06,0,.13,0,.19Z"/>
      </g>
      <path class="cls-3" d="m85.6,53.3c0,1.68-2.06,3.05-4.6,3.05s-4.6-1.37-4.6-3.05,2.06-3.05,4.6-3.05,4.6,1.37,4.6,3.05Z"/>
    </g>
  </g>
</svg>