<svg xmlns="http://www.w3.org/2000/svg" id="Layer_1" data-name="Layer 1" viewBox="317.72 13.7 115.03 129.86">
  <defs>
    <style>
      .cls-1 {
        stroke: #c9542c;
        stroke-width: 2px;
      }

      .cls-1, .cls-2 {
        fill: none;
        stroke-linecap: round;
        stroke-miterlimit: 10;
      }

      .cls-3 {
        fill: #ff9e3d;
      }

      .cls-3, .cls-4, .cls-5 {
        stroke-width: 0px;
      }

      .cls-4 {
        fill: #c9542c;
      }

      .cls-5 {
        fill: #fff59c;
      }

      .cls-2 {
        stroke: #382d38;
        stroke-width: 3px;
      }
    </style>
  </defs>
  <g id="Objects">
    <g>
      <path class="cls-4" d="m335.76,117.98h-1s-8.66,7.98-10.89,14.24c-.25-.07-.51-.12-.8-.12-1.21,0-2.19.73-2.19,1.62s.98,1.62,2.19,1.62c.1,0,.2-.01.3-.02,0,.02,0,.04,0,.07-.85.17-1.49.85-1.49,1.68,0,.95.85,1.72,1.91,1.72.34,0,.66-.09.94-.23-.02.15-.03.3-.03.45,0,1.4.85,2.53,1.91,2.53s1.89-1.12,1.9-2.5c8.06.12,22.44-8.58,22.13-12.31-.38-4.5-14.88-8.75-14.88-8.75Z"/>
      <path class="cls-4" d="m432.75,131.11c0-1.06-1.12-1.92-2.5-1.92-.07,0-.14.01-.21.02-1.58-6.38-11.2-15.23-11.2-15.23h-1s-14.5,4.25-14.88,8.75c-.28,3.38,11.48,10.84,19.69,12.13-.04.16-.07.34-.07.51,0,1.07.81,1.94,1.81,1.94.89,0,1.63-.69,1.78-1.6.43.34.98.55,1.58.55,1.38,0,2.5-1.08,2.5-2.42,0-.3-.06-.58-.17-.85.05,0,.11.01.16.01,1.38,0,2.5-.86,2.5-1.92Z"/>
      <path class="cls-3" d="m426.33,93.48c5.54,6.88,5.19,11.73-.94,13.18,4.21,10.48,1.92,16.68-6.2,16.96,1.25,9.98-3.46,13.91-12.78,10.78-4.65,9.61-14.95,11.13-27.99,4.44q.48,6.33,0,0c-4.76,6.49-9.83,6.28-13.69-.57-7.96,5.43-14.46,3.81-17.46-4.45-10.86,2.39-17.6-2.63-17.83-13.74-7.6.33-9.87-4.32-6.07-12.64-6.75-1.98-7.5-7.56-1.95-15.18-5.52-1.75-4.76-5.65,1.61-10.16-4.48-3.22-3.41-6.98,2.6-9.92-3.85-5.5-2.85-10.09,2.02-11.81-4.33-6.38-3.65-10.41,1.86-10.98-3.16-9.67-1.14-15.01,5.56-14.69-2-8.08.47-10.88,6.73-7.68,1.96-9.59,3.15-11.8,13.55-6.7,1.75-6.6,8.13-8.02,13.08-1.74,1.92-6.35,10.01-7.03,10.01,1.13q.48-6.21,0,0c4.93-6.34,11.88-6,13.59.43,9.13-5.62,11.85-4.5,12.97,3.73,7.05-3.65,9.9-.73,7.9,8.05,6.21-1.07,7.57,3.72,3.87,13.13,5.26,1.83,5.54,8.11.91,17.13,5.03,3.27,6.2,7.21,2.68,11.26,6.51,3.57,8.42,7.1,4.41,10.54,6.39,3.63,7.11,6.97,1.59,9.51Z"/>
      <path class="cls-2" d="m352.21,50.73s1.19,5.92,5.72,5.92,6.16-4.92,6.16-4.92"/>
      <path class="cls-2" d="m383.18,50.73s1.19,5.92,5.72,5.92,6.16-4.92,6.16-4.92"/>
      <path class="cls-5" d="m363.4,63.84s4.1-4.38,4.35-3.75-.92,5.86-.92,5.86c0,0-2.14-.73-3.43-2.11Z"/>
      <path class="cls-5" d="m384.45,63.84s-4.1-4.38-4.35-3.75.92,5.86.92,5.86c0,0,2.14-.73,3.43-2.11Z"/>
      <path class="cls-1" d="m361.33,61.23s2.55,5.92,12.18,5.92,13.12-4.92,13.12-4.92"/>
      <path class="cls-4" d="m403.2,77.98s-2.88-8,3.25-8.25,11.75,22.12,5.75,34.12c0,0,1.56,2.19.56,2.94s-3.25-1.62-3.25-1.62c0,0-1,3.69-2.44,3s-1.12-3.44-1.12-3.44c0,0-3.5,2.75-4.06,1.31s1.62-4.19,1.62-4.19c0,0,4.02-6.79-.31-23.88Z"/>
      <path class="cls-4" d="m342.08,75.4s2.88-8-3.25-8.25-11.75,22.12-5.75,34.12c0,0-1.56,2.19-.56,2.94s3.25-1.62,3.25-1.62c0,0,1,3.69,2.44,3s1.12-3.44,1.12-3.44c0,0,3.5,2.75,4.06,1.31s-1.62-4.19-1.62-4.19c0,0-4.02-6.79.31-23.88Z"/>
    </g>
  </g>
</svg>